<svg version="1.1" id="Layer_1" xmlns:x="ns_extend;" xmlns:i="ns_ai;" xmlns:graph="ns_graphs;" xmlns="http://www.w3.org/2000/svg" xmlns:xlink="http://www.w3.org/1999/xlink" x="0px" y="0px" viewBox="0 0 259.9 48" style="enable-background:new 0 0 259.9 48;" xml:space="preserve">
 <style type="text/css">
  .st0{fill:#142800;}
	.st1{fill-rule:evenodd;clip-rule:evenodd;fill:#142800;}
 </style>
 <metadata>
  <sfw xmlns="ns_sfw;">
   <slices>
   </slices>
   <sliceSourceBounds bottomLeftOrigin="true" height="48" width="259.9" x="5.2" y="-211.7">
   </sliceSourceBounds>
  </sfw>
 </metadata>
 <g>
  <path class="st0" d="M213.8,7.8c2.6,0,4.2,1.7,4.2,4.3s-1.6,4.1-4.2,4.1c-2.8,0-4.2-1.7-4.2-4.1S211.1,7.8,213.8,7.8z M217.5,19.5
		h-7.5v27.7h7.5V19.5z M141.9,15.4v31.8h8.1V15.4h11v-5.3h-28.6v5.3L141.9,15.4L141.9,15.4z">
  </path>
  <path class="st0" d="M174.9,26.8c-1-0.3-2.1-0.4-3.2-0.4c-3.7,0-5.7,2.2-5.7,6.7v14h-7.4V19.5h7v7.6c1.4-5.2,5-8.3,9.3-8.4V26.8z
		 M230.8,47.2V10.1h-7.4v37.1L230.8,47.2L230.8,47.2z M254.3,27.8c-0.4-0.8-2.3-3.8-6.4-3.8c-3.8,0-4.7,1.8-4.6,2.9
		c0.2,1.5,1,2.3,5.9,3.4c6.7,1.4,10.7,3.5,10.7,8.8c0,6.1-5.7,8.8-12.6,8.8c-3.6,0-9.8-1-12.8-6.4l5.3-3.5c0,0,2.7,4.1,7.4,4.1
		c4.4,0,4.8-1.9,4.9-2.7c0.1-1.2-0.2-2.4-5.2-3.5c-7-1.5-11.3-3.1-11.3-9c0-3,2.7-8.4,12.1-8.4c8.8,0,11.3,4.8,11.8,5.8
		c0,0.1,0.1,0.1,0.1,0.1L254.3,27.8C254.3,27.8,254.3,27.8,254.3,27.8z">
  </path>
  <path class="st1" d="M190.1,31.2c-7.9,1.5-12.8,3.5-12.8,9.6l0,0c0,4.5,3.4,7.1,8.6,7.1c4.8,0,8.1-2.4,9.9-6.4
		C196,46,198,48,202.5,48c2.1,0,3-0.4,4-1.1v-5c-0.5,0.2-0.9,0.4-1.7,0.4c-1.9,0-2.2-0.8-2.2-3.4v-9.7c0-7.2-4.5-10.7-11.6-10.7
		c-6.3,0-10.6,2.9-13,9.2l6.5,1.9c1-3.1,2.5-5.3,6.1-5.3c3.7,0,5.1,1.5,5.1,3.3C195.7,29.9,193.3,30.6,190.1,31.2L190.1,31.2z
		 M195.9,33.2v1.7c0,3.1-2.4,7.7-7.5,7.7c-2.8,0-4-1.1-4-3c0-2.2,1.5-3.2,6.3-4.4C193.7,34.5,195.3,34,195.9,33.2z M69,47.2L69,47.2
		l6.4,0l2.4-7.8h16l2.5,7.8h8.5l-13-37.1H81.8L69,47.2L69,47.2L69,47.2L69,47.2z M84.4,18.7l-4.8,15.5h12.6L87,18.7l-1.3-4.1h-0.1
		L84.4,18.7C84.4,18.7,84.4,18.7,84.4,18.7z">
  </path>
  <path class="st0" d="M107.8,47.2V10.1h7.4v37.1H107.8z M121,47.2V10.1h7.4v37.1C128.5,47.2,121,47.2,121,47.2z">
  </path>
  <path class="st1" d="M50.3,14.8c-1.7-3.2-3-4.8-4.7-4.8c-1.9,0-2.7,1-3.9,2.8c-0.9,1.2-1.8,2.8-3.3,2.7c-1.6-0.2-2.5-3.9-3.6-6.9
		C33.2,4.4,32.2,0,29.5,0c-1.5,0-2.9,1.4-4.9,4.5L3.1,37.4c-2.5,4.1-4.5,7-1.9,9.7c3.1,3,10.3-2.2,15.2-5.3c4.9-3.1,10-6.2,17.1-6
		c9.6,0.2,14.3,9.8,20.1,11.7c3.9,1.3,7.6-0.2,8.3-4.3c0.5-2.2-0.3-4.4-1.4-6.7L50.3,14.8z M49.6,34.1c-1.9,1.4-4.7-0.9-6.4-1.9
		c-1.9-1-5-3.5-10.7-3.4c-4.6,0.1-7.1,1.8-9.8,3.6c-5.9,4-11.3,8.8-12.9,6.3c-1-1.6,1.7-4.7,7.9-14.4c4.4-6.9,7.6-12.4,9.8-12.4
		c2.4,0,2.6,2.4,3,4.9c0.7,3.9,2.6,6,5.1,6.3c2.8,0.4,5.2-2,7.1-1.9c1.8,0,3,2.6,4.4,5.3C49.1,29.8,51,33.1,49.6,34.1z">
  </path>
 </g>
</svg>