<svg width="24" height="24" viewBox="0 0 24 24" fill="none" xmlns="http://www.w3.org/2000/svg">
<path fill-rule="evenodd" clip-rule="evenodd" d="M10.875 2.25C6.11154 2.25 2.25 6.11154 2.25 10.875C2.25 15.6385 6.11154 19.5 10.875 19.5C12.9866 19.5 14.921 18.7411 16.4204 17.4813L20.4695 21.5304C20.7624 21.8233 21.2373 21.8233 21.5302 21.5304C21.8231 21.2375 21.8231 20.7627 21.5302 20.4698L17.4811 16.4206C18.7411 14.9213 19.5 12.9868 19.5 10.875C19.5 6.11154 15.6385 2.25 10.875 2.25ZM3.75 10.875C3.75 6.93997 6.93997 3.75 10.875 3.75C14.81 3.75 18 6.93997 18 10.875C18 14.81 14.81 18 10.875 18C6.93997 18 3.75 14.81 3.75 10.875Z" fill="#2B381F"/>
</svg>
