<svg width="222" height="24" viewBox="0 0 222 24" fill="none" xmlns="http://www.w3.org/2000/svg">
<g clip-path="url(#clip0_1_871)">
<path d="M106.884 3.90454C108.199 3.90454 108.983 4.77653 108.983 6.0372C108.983 7.29788 108.199 8.10146 106.884 8.10146C105.5 8.10146 104.761 7.25275 104.761 6.0372C104.761 4.82166 105.5 3.90454 106.884 3.90454Z" fill="#142800"/>
<path d="M108.74 9.75809H105.003V23.5906H108.74V9.75809Z" fill="#142800"/>
<path d="M70.917 7.68365V23.592H74.9495V7.68365H80.4332V5.03565H66.1311V7.68365H70.917Z" fill="#142800"/>
<path d="M87.4368 13.4237C86.936 13.2926 86.409 13.214 85.8556 13.214C84.0102 13.214 82.9824 14.3146 82.9824 16.5695V23.5935H79.2652V9.75518H82.7707V13.5547C83.4569 10.9605 85.2483 9.38688 87.4368 9.36213V13.4237Z" fill="#142800"/>
<path d="M115.352 23.5906V5.06186H111.641V23.5906H115.352Z" fill="#142800"/>
<path d="M127.125 13.923C126.918 13.5401 125.97 12.0072 123.928 12.0072C122.004 12.0072 121.56 12.8909 121.618 13.4804C121.707 14.2461 122.122 14.629 124.579 15.1604C127.925 15.8373 129.939 16.9276 129.939 19.58C129.939 22.6443 127.096 23.9996 123.631 23.9996C121.825 23.9996 118.746 23.4989 117.237 20.7883L119.872 19.021C119.872 19.021 121.205 21.0838 123.573 21.0838C125.764 21.0838 125.972 20.1113 126.001 19.7576C126.061 19.168 125.883 18.5493 123.395 17.9889C119.872 17.2232 117.77 16.4269 117.77 13.5095C117.77 12.0072 119.103 9.29662 123.839 9.29662C128.243 9.29662 129.5 11.7178 129.75 12.1985C129.768 12.2346 129.781 12.2598 129.79 12.2722L127.125 13.9215V13.923Z" fill="#142800"/>
<path fill-rule="evenodd" clip-rule="evenodd" d="M95.0346 15.6146C91.0736 16.3817 88.6208 17.3571 88.6208 20.4272L88.6194 20.4258C88.6194 22.6691 90.3334 23.9982 92.9044 23.9982C95.328 23.9982 96.9545 22.8161 97.8407 20.7795C97.9589 22.9937 98.9634 23.9982 101.21 23.9982C102.275 23.9982 102.719 23.7915 103.221 23.4668V20.9862C102.955 21.1042 102.748 21.193 102.364 21.193C101.418 21.193 101.241 20.8087 101.241 19.5101V14.6392C101.241 11.0377 98.9941 9.29516 95.4477 9.29516C92.3161 9.29516 90.1582 10.7422 88.9464 13.872L92.1978 14.8168C92.7 13.2519 93.4388 12.1892 95.2711 12.1892C97.1034 12.1892 97.8129 12.9272 97.8129 13.8429C97.8129 14.9653 96.6011 15.2899 95.0346 15.6146ZM97.9312 16.5899V17.4459C97.9312 18.9817 96.7194 21.2847 94.1776 21.2847C92.7584 21.2847 92.1671 20.7533 92.1671 19.7794C92.1671 18.6571 92.9366 18.1548 95.3003 17.5944C96.8085 17.2697 97.6056 17.0033 97.9312 16.5899Z" fill="#142800"/>
<path fill-rule="evenodd" clip-rule="evenodd" d="M34.4814 23.592L34.4819 23.5906H37.6963L38.9096 19.7125H46.922L48.1878 23.5906H52.4583L45.9482 5.03711H40.8601L34.4819 23.5906H34.48L34.4814 23.592ZM42.1785 9.33593L39.7535 17.0674H46.0533L43.4969 9.33593L42.8384 7.26585H42.7859L42.18 9.33593H42.1785Z" fill="#142800"/>
<path d="M53.8716 23.592V5.03711H57.5887V23.592H53.8716Z" fill="#142800"/>
<path d="M60.4912 23.592V5.03711H64.2083V23.592H60.4912Z" fill="#142800"/>
<path fill-rule="evenodd" clip-rule="evenodd" d="M25.106 7.41252C24.2619 5.80039 23.6095 5.03193 22.7626 5.03193C21.817 5.03193 21.4004 5.53238 20.8303 6.42665C20.3699 7.02692 19.9258 7.84871 19.1858 7.76667C18.4047 7.68463 17.9524 5.83868 17.3632 4.29355C16.5546 2.18779 16.0887 0 14.7456 0C13.9796 0 13.3094 0.697359 12.2707 2.25753L1.53887 18.7138C0.305484 20.7745 -0.726446 22.2102 0.579569 23.5598C2.11444 25.0366 5.71866 22.4522 8.18542 20.8934C10.6522 19.3346 13.1738 17.8169 16.7369 17.8989C21.5334 18.0083 23.8631 22.8214 26.7684 23.7376C28.7418 24.3666 30.5507 23.6419 30.9345 21.6045C31.1606 20.4846 30.7686 19.3975 30.2273 18.238L25.106 7.41252ZM24.7771 17.0648C23.8041 17.7895 22.4474 16.6272 21.5704 16.135C20.6385 15.6154 19.0625 14.3711 16.2394 14.4121C13.9371 14.4394 12.69 15.3009 11.3196 16.2307C8.34576 18.2544 5.65973 20.6063 4.89229 19.3893C4.39894 18.6099 5.72825 17.0511 8.85282 12.1833C11.0729 8.72383 12.6366 5.96174 13.7452 5.96174C14.9704 5.96174 15.0389 7.16366 15.2253 8.39566C15.5775 10.3578 16.5368 11.3793 17.7825 11.5406C19.179 11.7293 20.3863 10.5575 21.3456 10.5698C22.2419 10.5889 22.8311 11.8866 23.5712 13.2403C24.5085 14.9221 25.487 16.5315 24.7771 17.0648Z" fill="#142800"/>
<path d="M145.988 23.5C145.101 23.5 144.357 23.3387 143.755 23.016C143.161 22.686 142.71 22.2533 142.402 21.718C142.102 21.1827 141.951 20.596 141.951 19.958C141.951 19.3347 142.069 18.7957 142.303 18.341C142.545 17.879 142.883 17.4977 143.315 17.197C143.748 16.889 144.265 16.647 144.866 16.471C145.431 16.317 146.062 16.185 146.758 16.075C147.462 15.9577 148.174 15.8513 148.892 15.756C149.611 15.6607 150.282 15.569 150.905 15.481L150.201 15.888C150.223 14.832 150.011 14.051 149.563 13.545C149.123 13.039 148.361 12.786 147.275 12.786C146.557 12.786 145.926 12.951 145.383 13.281C144.848 13.6037 144.47 14.1317 144.25 14.865L142.391 14.304C142.677 13.2627 143.231 12.445 144.052 11.851C144.874 11.257 145.955 10.96 147.297 10.96C148.375 10.96 149.299 11.1543 150.069 11.543C150.847 11.9243 151.404 12.5037 151.741 13.281C151.91 13.6477 152.016 14.0473 152.06 14.48C152.104 14.9053 152.126 15.3527 152.126 15.822V23.17H150.388V20.321L150.795 20.585C150.348 21.5457 149.721 22.2717 148.914 22.763C148.115 23.2543 147.14 23.5 145.988 23.5ZM146.285 21.861C146.989 21.861 147.598 21.7363 148.111 21.487C148.632 21.2303 149.05 20.8967 149.365 20.486C149.681 20.068 149.886 19.6133 149.981 19.122C150.091 18.7553 150.15 18.3483 150.157 17.901C150.172 17.4463 150.179 17.098 150.179 16.856L150.861 17.153C150.223 17.241 149.596 17.3253 148.98 17.406C148.364 17.4867 147.781 17.5747 147.231 17.67C146.681 17.758 146.186 17.8643 145.746 17.989C145.424 18.0917 145.119 18.2237 144.833 18.385C144.555 18.5463 144.327 18.7553 144.151 19.012C143.983 19.2613 143.898 19.573 143.898 19.947C143.898 20.2697 143.979 20.5777 144.14 20.871C144.309 21.1643 144.566 21.4027 144.91 21.586C145.262 21.7693 145.721 21.861 146.285 21.861Z" fill="#656E5E"/>
<path d="M161.399 23.17C160.695 23.3093 159.999 23.3643 159.309 23.335C158.627 23.313 158.019 23.1773 157.483 22.928C156.948 22.6713 156.541 22.2753 156.262 21.74C156.028 21.2707 155.899 20.7977 155.877 20.321C155.863 19.837 155.855 19.2907 155.855 18.682V7.99H157.813V18.594C157.813 19.078 157.817 19.4923 157.824 19.837C157.839 20.1817 157.916 20.4787 158.055 20.728C158.319 21.1973 158.737 21.4723 159.309 21.553C159.889 21.6337 160.585 21.6117 161.399 21.487V23.17ZM153.446 12.907V11.29H161.399V12.907H153.446Z" fill="#656E5E"/>
<path d="M167.995 23.17V7H169.953V23.17H167.995Z" fill="#656E5E"/>
<path d="M177.544 23.478C176.781 23.478 176.125 23.357 175.575 23.115C175.032 22.873 174.581 22.5503 174.222 22.147C173.863 21.7437 173.58 21.2963 173.375 20.805C173.17 20.3137 173.023 19.8113 172.935 19.298C172.854 18.7847 172.814 18.3043 172.814 17.857V11.29H174.794V17.241C174.794 17.7983 174.845 18.3373 174.948 18.858C175.051 19.3787 175.223 19.848 175.465 20.266C175.714 20.684 176.044 21.014 176.455 21.256C176.873 21.498 177.394 21.619 178.017 21.619C178.508 21.619 178.956 21.5347 179.359 21.366C179.762 21.1973 180.107 20.948 180.393 20.618C180.679 20.2807 180.899 19.8553 181.053 19.342C181.207 18.8287 181.284 18.231 181.284 17.549L182.571 17.945C182.571 19.089 182.362 20.0753 181.944 20.904C181.533 21.7327 180.95 22.3707 180.195 22.818C179.447 23.258 178.563 23.478 177.544 23.478ZM181.504 23.17V19.991H181.284V11.29H183.253V23.17H181.504Z" fill="#656E5E"/>
<path d="M194.572 23.17V17.219C194.572 16.6543 194.52 16.1117 194.418 15.591C194.322 15.0703 194.15 14.6047 193.901 14.194C193.659 13.776 193.329 13.446 192.911 13.204C192.5 12.962 191.979 12.841 191.349 12.841C190.857 12.841 190.41 12.9253 190.007 13.094C189.611 13.2553 189.27 13.5047 188.984 13.842C188.698 14.1793 188.474 14.6047 188.313 15.118C188.159 15.624 188.082 16.2217 188.082 16.911L186.795 16.515C186.795 15.3637 187 14.3773 187.411 13.556C187.829 12.7273 188.412 12.093 189.16 11.653C189.915 11.2057 190.802 10.982 191.822 10.982C192.592 10.982 193.248 11.103 193.791 11.345C194.333 11.587 194.784 11.9097 195.144 12.313C195.503 12.709 195.785 13.1563 195.991 13.655C196.196 14.1463 196.339 14.6487 196.42 15.162C196.508 15.668 196.552 16.1483 196.552 16.603V23.17H194.572ZM186.102 23.17V11.29H187.862V14.469H188.082V23.17H186.102Z" fill="#656E5E"/>
<path d="M204.089 23.5C202.886 23.5 201.863 23.2323 201.02 22.697C200.184 22.1543 199.546 21.41 199.106 20.464C198.666 19.518 198.439 18.44 198.424 17.23C198.439 15.9907 198.67 14.9017 199.117 13.963C199.572 13.017 200.221 12.28 201.064 11.752C201.907 11.224 202.923 10.96 204.111 10.96C205.365 10.96 206.443 11.268 207.345 11.884C208.254 12.5 208.863 13.3433 209.171 14.414L207.235 14.997C206.986 14.3077 206.579 13.7723 206.014 13.391C205.457 13.0097 204.815 12.819 204.089 12.819C203.275 12.819 202.604 13.0097 202.076 13.391C201.548 13.765 201.156 14.2857 200.899 14.953C200.642 15.613 200.51 16.372 200.503 17.23C200.518 18.55 200.822 19.617 201.416 20.431C202.017 21.2377 202.908 21.641 204.089 21.641C204.866 21.641 205.512 21.465 206.025 21.113C206.538 20.7537 206.927 20.2367 207.191 19.562L209.171 20.079C208.76 21.1863 208.119 22.0333 207.246 22.62C206.373 23.2067 205.321 23.5 204.089 23.5Z" fill="#656E5E"/>
<path d="M219.655 23.17V17.219C219.655 16.6543 219.604 16.1117 219.501 15.591C219.406 15.0703 219.234 14.6047 218.984 14.194C218.742 13.776 218.412 13.446 217.994 13.204C217.584 12.962 217.063 12.841 216.432 12.841C215.941 12.841 215.494 12.9253 215.09 13.094C214.694 13.2553 214.353 13.5047 214.067 13.842C213.781 14.1793 213.558 14.6047 213.396 15.118C213.242 15.624 213.165 16.2217 213.165 16.911L211.878 16.515C211.878 15.3637 212.084 14.3773 212.494 13.556C212.912 12.7273 213.495 12.093 214.243 11.653C214.999 11.2057 215.886 10.982 216.905 10.982C217.675 10.982 218.332 11.103 218.874 11.345C219.417 11.587 219.868 11.9097 220.227 12.313C220.587 12.709 220.869 13.1563 221.074 13.655C221.28 14.1463 221.423 14.6487 221.503 15.162C221.591 15.668 221.635 16.1483 221.635 16.603V23.17H219.655ZM211.185 23.17V7.33H212.945V16.075H213.165V23.17H211.185Z" fill="#656E5E"/>
</g>
<defs>
<clipPath id="clip0_1_871">
<rect width="221.635" height="24" fill="white"/>
</clipPath>
</defs>
</svg>
