<svg width="38" height="45" viewBox="0 0 38 45" fill="none" xmlns="http://www.w3.org/2000/svg">
<ellipse cx="19" cy="37" rx="12" ry="4" fill="url(#paint0_radial_1_867)"/>
<g filter="url(#filter0_d_1_867)">
<path d="M32 16.8571C32 26.7143 19 37 19 37C19 37 6 26.7143 6 16.8571C6 9.75634 11.8203 4 19 4C26.1797 4 32 9.75634 32 16.8571Z" fill="#2C5601"/>
<path d="M19 5C25.6379 5 31 10.3193 31 16.8574C30.9999 21.4008 27.9689 26.1959 24.7393 29.9756C23.1475 31.8384 21.5532 33.4029 20.3555 34.502C19.8059 35.0062 19.3405 35.4106 19 35.7002C18.6595 35.4106 18.1941 35.0062 17.6445 34.502C16.4468 33.4029 14.8525 31.8384 13.2607 29.9756C10.0311 26.1959 7.00012 21.4008 7 16.8574C7 10.3193 12.3621 5 19 5Z" stroke="white" stroke-width="2"/>
</g>
<defs>
<filter id="filter0_d_1_867" x="0" y="0" width="38" height="45" filterUnits="userSpaceOnUse" color-interpolation-filters="sRGB">
<feFlood flood-opacity="0" result="BackgroundImageFix"/>
<feColorMatrix in="SourceAlpha" type="matrix" values="0 0 0 0 0 0 0 0 0 0 0 0 0 0 0 0 0 0 127 0" result="hardAlpha"/>
<feOffset dy="2"/>
<feGaussianBlur stdDeviation="3"/>
<feColorMatrix type="matrix" values="0 0 0 0 0 0 0 0 0 0 0 0 0 0 0 0 0 0 0.2 0"/>
<feBlend mode="normal" in2="BackgroundImageFix" result="effect1_dropShadow_1_867"/>
<feBlend mode="normal" in="SourceGraphic" in2="effect1_dropShadow_1_867" result="shape"/>
</filter>
<radialGradient id="paint0_radial_1_867" cx="0" cy="0" r="1" gradientUnits="userSpaceOnUse" gradientTransform="translate(19 37) rotate(90) scale(3.5 10.5)">
<stop stop-opacity="0.24"/>
<stop offset="1" stop-color="#8F8F8F" stop-opacity="0"/>
</radialGradient>
</defs>
</svg>
