<svg version="1.1" id="Layer_1" xmlns:x="ns_extend;" xmlns:i="ns_ai;" xmlns:graph="ns_graphs;" xmlns="http://www.w3.org/2000/svg" xmlns:xlink="http://www.w3.org/1999/xlink" x="0px" y="0px" viewBox="0 0 62.1 48" style="enable-background:new 0 0 62.1 48;" xml:space="preserve">
 <style type="text/css">
  .st0{fill-rule:evenodd;clip-rule:evenodd;fill:#FFFFFF;}
 </style>
 <metadata>
  <sfw xmlns="ns_sfw;">
   <slices>
   </slices>
   <sliceSourceBounds bottomLeftOrigin="true" height="48" width="62.1" x="5.2" y="-211.7">
   </sliceSourceBounds>
  </sfw>
 </metadata>
 <g>
  <path class="st0" d="M50.3,14.8c-1.7-3.2-3-4.8-4.7-4.8c-1.9,0-2.7,1-3.9,2.8c-0.9,1.2-1.8,2.8-3.3,2.7c-1.6-0.2-2.5-3.9-3.6-6.9
		C33.2,4.4,32.2,0,29.5,0c-1.5,0-2.9,1.4-4.9,4.5L3.1,37.4c-2.5,4.1-4.5,7-1.9,9.7c3.1,3,10.3-2.2,15.2-5.3c4.9-3.1,10-6.2,17.1-6
		c9.6,0.2,14.3,9.8,20.1,11.7c3.9,1.3,7.6-0.2,8.3-4.3c0.5-2.2-0.3-4.4-1.4-6.7L50.3,14.8z M49.6,34.1c-1.9,1.4-4.7-0.9-6.4-1.9
		c-1.9-1-5-3.5-10.7-3.4c-4.6,0.1-7.1,1.8-9.8,3.6c-5.9,4-11.3,8.8-12.9,6.3c-1-1.6,1.7-4.7,7.9-14.4c4.4-6.9,7.6-12.4,9.8-12.4
		c2.4,0,2.6,2.4,3,4.9c0.7,3.9,2.6,6,5.1,6.3c2.8,0.4,5.2-2,7.1-1.9c1.8,0,3,2.6,4.4,5.3C49.1,29.8,51,33.1,49.6,34.1z">
  </path>
 </g>
</svg>